PathFileType	4	(X/Y/Z)	11_2_67_p1_0-206_filt_butterworth.trc
DataRate	CameraRate	NumFrames	NumMarkers	Units	OrigDataRate	OrigDataStartFrame	OrigNumFrames
55.0	55.0	5	27	m	55.0	0	206
Frame#	Time	RHip			RKnee			RAnkle			RBigToe			RSmallToe			RHeel			LHip			LKnee			LAnkle			LBigToe			LSmallToe			LHeel			Neck			Head			Nose			RShoulder			RElbow			RWrist			RThumb			RIndex			RPinky			LShoulder			LElbow			LWrist			LThumb			LIndex			LPinky			
		X1	Y1	Z1	X2	Y2	Z2	X3	Y3	Z3	X4	Y4	Z4	X5	Y5	Z5	X6	Y6	Z6	X7	Y7	Z7	X8	Y8	Z8	X9	Y9	Z9	X10	Y10	Z10	X11	Y11	Z11	X12	Y12	Z12	X13	Y13	Z13	X14	Y14	Z14	X15	Y15	Z15	X16	Y16	Z16	X17	Y17	Z17	X18	Y18	Z18	X19	Y19	Z19	X20	Y20	Z20	X21	Y21	Z21	X22	Y22	Z22	X23	Y23	Z23	X24	Y24	Z24	X25	Y25	Z25	X26	Y26	Z26	X27	Y27	Z27	
0	0.0	0.3514014475915103	0.8518549852327558	0.7540704335523758	0.36319355335906933	0.3950572639783078	0.7274436216430573	0.3385012946362463	-0.053778015836200684	0.7841528018388094	0.3493223833503071	0.0032484331714347225	0.5452189714175877	0.3977020964643727	-0.018351750434144457	0.5964435404556412	0.3227490012636084	-0.10916183252066128	0.8263906165733244	0.16123587734693667	0.8331036712957038	0.7385970609282684	0.17117519804065948	0.41363191750570827	0.7197600742975976	0.1811795575066812	-0.019681053184385275	0.7305005566405843	0.19489055661976404	-0.013909683134025588	0.5659614834775312	0.1384812036102094	-0.0027490242469417198	0.5889700427667791	0.19063364382685571	-0.08685144976172962	0.78941548744347	0.2344712276859919	1.3422643860474477	0.7770667597136645	0.24351662425744217	1.584532306529755	0.7294505994628472	0.22965884924134689	1.482535708470233	0.6197432530763057	0.39251695668380965	1.2801472689677351	0.7323607668324529	0.4225256275837153	1.0295934936434397	0.69031769069801	0.3337759260298872	0.8817654206275782	0.5428635212605903	0.26640516331768876	0.7976476779229011	0.515690772090307	0.2617218681221516	0.7877520289093142	0.5260988827437862	0.2638833566877121	0.7725821326861377	0.5282292904672805	0.10587309265185794	1.2711159701624415	0.7603067276481913	0.10003231752215046	1.0316887800475991	0.6706899891826887	0.18410224702209446	0.8745964064614855	0.5519069294025215	0.26313659005862344	0.825101752924307	0.505817383960306	0.2605114249009406	0.7951760555575556	0.5152271823065719	0.2546979205573824	0.7814196005827955	0.5270066243224089	
1	0.0181818181818181	0.3514376767647657	0.8487064838879147	0.7535992126962762	0.3641410494681025	0.39617096264667445	0.723218086403204	0.3391381052774928	-0.05337576165053454	0.7848596236832414	0.3496839507147079	0.0031589944961076116	0.5453443271647364	0.3954803898352981	-0.011109788305063012	0.5893448205348465	0.32269498396088575	-0.10879557642718152	0.8269253338992782	0.16243654197024746	0.8310723176180675	0.737093612519821	0.1715848216906975	0.41056299054837253	0.7204291317629072	0.18197317728757378	-0.023205357237311264	0.7340879245915939	0.1949559521770258	-0.011258240662088803	0.5650618357943047	0.1388743899389313	-0.003907234629279541	0.5909860805461572	0.19076053747083466	-0.0885873639405178	0.792732010605459	0.23445168806777839	1.3429385314027367	0.7772221867288465	0.24217587134332605	1.5843701154164578	0.7305836477803339	0.22969322797304567	1.4825915315920297	0.619670448779863	0.39232478106229524	1.2800225412041912	0.7322874420920411	0.4259184017408527	1.0290020836873839	0.6982934603715638	0.334914403765789	0.8809221819650451	0.5425539839719106	0.2637514592551543	0.8003340077781148	0.5156276444912945	0.2610990053657397	0.7939495820313299	0.5188213619915623	0.2646162277014963	0.7745183151030356	0.5308808787259892	0.1059661213813485	1.270233298683361	0.7604593295772094	0.09965505442450634	1.0333537881359343	0.6711444611790717	0.18123388205019067	0.877944186264233	0.5498342474602349	0.2620591322117554	0.8250327898394287	0.5051657427070954	0.2583708642722579	0.7987489746264503	0.5109853707826915	0.2544087045152101	0.7833765824926939	0.5263518667693614	
2	0.0363636363636363	0.3514194617442338	0.8456536125067462	0.7531027355856191	0.36473171659058645	0.39705815397346705	0.7198596270141896	0.33966850726163855	-0.053038931374181586	0.7854537736614686	0.3499090226169658	0.003150743234452788	0.5453801367483194	0.3947502011480947	-0.00741602642171614	0.5861679710763494	0.32264796653058614	-0.10846839639015801	0.8273906718038182	0.16324285316628415	0.8289360013690844	0.7359373987805744	0.17187581927784892	0.4079081105644106	0.7210210363298527	0.18255891449643225	-0.02582017171848379	0.736821470363691	0.19506554132216045	-0.009166317034292534	0.5645494136544499	0.1390435422461128	-0.004284570420657427	0.5917442482295008	0.19086228033688113	-0.09003123569943153	0.7955537156150821	0.2344311420170937	1.3431336472301665	0.7773035399777941	0.24087477815190103	1.5840658937085232	0.7325269576866565	0.22971319775505275	1.4826282387421759	0.6196265490265827	0.39227718804527323	1.280001738750281	0.7322580477620053	0.42758854336045565	1.0285013697746765	0.7024104495262554	0.3348735091597826	0.8808253767524943	0.5421585515555194	0.260996212325288	0.8019068787506394	0.5154116670335069	0.2597552347165598	0.7973446968359533	0.5146278584416442	0.26524870698108666	0.7748771176967343	0.5328725260595772	0.10603476859700522	1.2694642539014265	0.7605974471462379	0.09937289930017099	1.0338514676855934	0.6713172835282857	0.18125409535003573	0.8798534630959298	0.5488466725865598	0.26080110126193634	0.8237781280869414	0.5044682017088289	0.25683286009890227	0.8004914731188865	0.5073671089387093	0.2542713629274784	0.7847710984818926	0.5260789182660177	
3	0.0545454545454545	0.3513524226199187	0.8427072759423163	0.7525856560771285	0.3649994957115024	0.397738940085638	0.7172925272667096	0.34010068774501306	-0.05276245950544026	0.7859438397844043	0.3500270917803353	0.0032049167800626693	0.5453460924663868	0.395182912234682	-0.006520322719934427	0.5860584160824579	0.3226076095027453	-0.10817890705882449	0.8277908908134826	0.1636916936709337	0.8267187486688474	0.7351044176035952	0.17205687130508385	0.40564085613798573	0.721539043735319	0.18295640271071006	-0.02761118747215567	0.7387788389127204	0.1951917338367736	-0.007635108923632117	0.5643408767851765	0.13904159615899114	-0.004074331455735075	0.5915517735536856	0.1909410727229969	-0.09120706697000085	0.7979155261391891	0.23440975689130028	1.342971657821318	0.7773281046542189	0.23966573940033542	1.5836699857442154	0.734984974477175	0.2297215428668858	1.4826489308972386	0.6196059332713306	0.3923258213974952	1.2800463945839218	0.7322599261517553	0.4278303186711399	1.0280341508078523	0.7034372124213201	0.3338333888508531	0.8811504509397406	0.5418968340153372	0.25823787466885384	0.8025126469383894	0.5150857053993109	0.2579280249850987	0.798397766487849	0.5129570837063	0.26579096991445145	0.7738828135676098	0.5342793359210475	0.1060825051316643	1.2688103614878588	0.7607192568886604	0.09921056868844998	1.0334999604833874	0.6713128817168592	0.18345007843629946	0.880517833565646	0.5488929103463508	0.259466765544996	0.8216246690370745	0.5038807975599078	0.25580728173411454	0.800755861813656	0.5043578137342227	0.25425348598994635	0.7856706153133486	0.526104997269516	
4	0.0727272727272727	0.35124217948182496	0.8398783790476911	0.7520526280275286	0.36497832781583184	0.3982334231101403	0.715441070951459	0.3404428338839458	-0.05254128054260836	0.786338410062962	0.3500676509280711	0.0033027525265299784	0.5452618866169883	0.3964499049269791	-0.007672535135548081	0.5881615795554802	0.3225735734073992	-0.10792572308241419	0.8281302514548089	0.163819946220083	0.8244445856374495	0.7345706668819494	0.1721366582753723	0.40373480585326105	0.7219864097161908	0.1831852755078606	-0.028664095342580242	0.7400376751945275	0.19530693950247088	-0.00666581300310308	0.5643528849136944	0.13892148730480375	-0.003469817569171807	0.5907158842555869	0.19099911492718358	-0.09213885968375642	0.7998523658446295	0.2343877000477605	1.3425744874677723	0.777313165951832	0.2386011498057975	1.5832327358617975	0.7376621434472496	0.22972104758806233	1.482656709033786	0.619602980968973	0.3924223248837126	1.2801180416830316	0.7322804195707008	0.42693799390152143	1.0275432256894466	0.702142303315993	0.33197418947798596	0.8815728504765992	0.541988441355284	0.25557489842661546	0.8022976684392795	0.5146926252710734	0.255854844981843	0.7975691841516814	0.5132477493977976	0.26625319188955887	0.771759675816038	0.5351764117634027	0.10611280181816189	1.2682731471138786	0.7608229353378596	0.09919277912864889	1.0326174083161264	0.6712356812313204	0.18710902282365172	0.8801308942824513	0.5499216663044622	0.2581603933967643	0.8188593140600571	0.5035595668547337	0.25520399853113557	0.7998944514895507	0.5019429021288286	0.25432266389837327	0.7861425997500188	0.5263473222369947	
